<svg width="100" height="100" xmlns="http://www.w3.org/2000/svg">
  <defs>
    <linearGradient id="face1" x1="0%" y1="0%" x2="100%" y2="100%">
      <stop offset="0%" style="stop-color:#fbbf24;stop-opacity:1" />
      <stop offset="100%" style="stop-color:#f59e0b;stop-opacity:1" />
    </linearGradient>
  </defs>
  
  <!-- Background circle -->
  <circle cx="50" cy="50" r="50" fill="url(#face1)"/>
  
  <!-- Face -->
  <circle cx="50" cy="45" r="25" fill="#fef3c7"/>
  
  <!-- Hair -->
  <path d="M25 30 Q50 15 75 30 Q75 25 70 20 Q50 10 30 20 Q25 25 25 30" fill="#92400e"/>
  
  <!-- Eyes -->
  <circle cx="42" cy="40" r="3" fill="#1f2937"/>
  <circle cx="58" cy="40" r="3" fill="#1f2937"/>
  <circle cx="43" cy="39" r="1" fill="white"/>
  <circle cx="59" cy="39" r="1" fill="white"/>
  
  <!-- Nose -->
  <ellipse cx="50" cy="48" rx="1.5" ry="2" fill="#f59e0b"/>
  
  <!-- Mouth -->
  <path d="M45 52 Q50 56 55 52" stroke="#92400e" stroke-width="1.5" fill="none" stroke-linecap="round"/>
  
  <!-- Shirt collar -->
  <path d="M30 70 Q50 75 70 70 L70 100 L30 100 Z" fill="#3b82f6"/>
  <path d="M45 75 Q50 78 55 75 L55 100 L45 100 Z" fill="white"/>
</svg>